<?xml version='1.0' encoding='utf-8'?>
<svg xmlns="http://www.w3.org/2000/svg" enable-background="new 0 0 1219.7733154 1830.8441162" version="1.1" viewBox="0 0 1219.8 1830.8"> <style type="text/css"> .st0{fill:#DA4531;stroke:#010202;stroke-width:5;stroke-miterlimit:10;} .st1{fill:#FCDF86;stroke:#010202;stroke-width:5;stroke-miterlimit:10;} .st2{fill:#F18643;stroke:#010202;stroke-width:5;stroke-miterlimit:10;} .st3{fill:#408DCC;stroke:#010202;stroke-width:5;stroke-miterlimit:10;} .st4{fill:none;stroke:#010202;stroke-width:5;stroke-miterlimit:10;} .st5{fill:#276794;stroke:#010202;stroke-width:5;stroke-miterlimit:10;} </style> <path class="st0" d="m753.99 1360.2c0.89667-0.46313 56.882 42.688 53.563 162.18 0 0-2.6555 34.521-19.252 43.151-16.597 8.6304-63.731-54.437-63.731-54.437s36.513 154.68-207.13 211.11c0 0 62.404-53.109 39.832-108.21 0 0-5.0828-24.045-41.933-57.784-14.691-13.451-28.662-27.669-41.623-42.795l-1.4197-1.6567s-15.933 49.79-49.79 55.101c0 0-70.637-51.782 24.097-180.57l15.076-26.095 292.31 0.0036622z"/> <path class="st1" d="m660.69 1388.2 7.9243 25.445s29.718 84.059-50.945 135.85c0 0-94.248-27.806-70.049-132.99l8.7054-28.311"/> <path class="st1" d="m673.82 320.48c-19.1-23.358-49.881-140.11-49.881-140.11l-35.924 4.7257s-26.087 109.85-47.347 133.1l133.15 2.2856z"/> <ellipse class="st1" transform="matrix(.87863 -.4775 .4775 .87863 7.0867 306.71)" cx="606.89" cy="139.41" rx="53.977" ry="44.287"/> <path class="st2" d="m996.91 1362.7c-42.117-135.38-133.94-206.23-133.94-206.23-22.942 61.086-59.631 137.5-94.076 195.03 75.414 10.073 139.97 22.75 220.12 65l7.8953-53.795z"/> <path class="st1" d="m1111.5 1269.5c29.426 77.364-107.63 204.56-123.51 141.63-0.65643-26.6 24.553-128.23 87.553-158.2 14.588-4.9272 30.422 2.2042 35.96 16.568z"/> <path class="st2" d="m215.53 1362.7c42.117-135.38 133.94-206.23 133.94-206.23 22.942 61.086 59.631 137.5 94.076 195.03-75.414 10.073-139.97 22.75-220.12 65l-7.8953-53.795z"/> <path class="st1" d="m100.98 1269.5c-29.426 77.364 107.63 204.56 123.51 141.63 0.65645-26.6-24.553-128.23-87.553-158.2-14.588-4.9272-30.422 2.2042-35.96 16.568z"/> <path class="st3" d="m596.76 306.25c6.1476 0.013519 12.284-0.29645 18.431-0.32077 23.994-0.094879 100.98 7.9288 213.67 153.95 136.59 176.99 106.77 395.34 106.77 395.34s-1.5685 18.581-6.2012 49.461c-16.964 113.08-50.182 223.11-98.199 326.88-23.816 51.472-53.235 112.42-62.34 119.94 0 0-56.724 40.739-161.31 40.042s-169.39-43.903-169.39-43.903-57.84-108.71-90.594-194.43c0 0-67.597-165.16-71.778-328.92s48.781-261.33 48.781-261.33 126.03-257.03 272.16-256.71z"/> <path class="st2" d="m917.94 643.62c-7.385-28.763-19.079-63.983-38.116-102.05-16.55-33.092-34.623-60.281-50.964-81.708-112.69-146.02-189.68-154.04-213.67-153.95-6.1476 0.024292-12.284 0.33429-18.431 0.32077-146.12-0.32159-272.16 256.71-272.16 256.71-6.0253 12.642-12.081 26.909-17.663 42.737-5.9165 16.777-10.324 32.538-13.638 46.854 0 0 123.99-102.2 314.28-102.2s310.36 93.28 310.36 93.28z"/> <path class="st4" d="m378.54 1226.1s228.45 102.66 449.66 11.962"/> <circle class="st1" cx="606.99" cy="872.49" r="210.8"/> <circle class="st5" cx="606.99" cy="872.49" r="124.24"/> <circle class="st2" cx="609.05" cy="713.51" r="22.114"/> <circle class="st2" cx="609.05" cy="1039.8" r="22.114"/> <circle class="st2" cx="744.82" cy="968.92" r="22.114"/> <circle class="st2" cx="468.72" cy="968.92" r="22.114"/> <circle class="st2" cx="755.52" cy="801.37" r="22.114"/> <circle class="st2" cx="460.63" cy="801.37" r="22.114"/> </svg>